<svg width="328" height="278" viewBox="0 0 328 278" fill="none" xmlns="http://www.w3.org/2000/svg"><path fill-rule="evenodd" clip-rule="evenodd" d="M237.591 278c-4.991 0-8.992-1.537-12.002-4.611-2.995-3.075-4.492-7.074-4.492-11.999 0-5.292 1.529-9.513 4.588-12.664S232.898 244 238.147 244c4.862 0 8.774 1.529 11.737 4.588 2.978 3.059 4.467 7.059 4.467 11.999 0 5.368-1.521 9.613-4.564 12.733-3.043 3.12-7.108 4.68-12.196 4.68Zm.266-29.205c-3.172 0-5.756 1.124-7.752 3.372-1.981 2.249-2.971 5.208-2.971 8.879 0 3.655.966 6.6 2.898 8.833 1.932 2.233 4.46 3.349 7.583 3.349 3.317 0 5.933-1.063 7.849-3.189 1.916-2.126 2.874-5.101 2.874-8.924 0-3.931-.934-6.967-2.801-9.108-1.852-2.142-4.412-3.212-7.68-3.212ZM61.082 277.449H41.64v-32.898h19.44v4.634H47.39v9.314h11.906v4.612H47.389v9.727h13.693v4.611Zm39.862 0h-6.713l-5.53-8.809c-.5-.811-.99-1.499-1.474-2.065a7.893 7.893 0 0 0-1.449-1.423 4.84 4.84 0 0 0-1.594-.802c-.58-.169-1.231-.253-1.956-.253H79.91v13.352h-5.724v-32.898h11.399c1.626 0 3.123.183 4.492.55 1.368.367 2.56.926 3.574 1.675a7.611 7.611 0 0 1 2.367 2.776c.58 1.101.87 2.394.87 3.877 0 1.163-.186 2.233-.556 3.212a8.081 8.081 0 0 1-1.546 2.592 9.206 9.206 0 0 1-2.415 1.928c-.934.535-1.988.948-3.163 1.238v.092a8.61 8.61 0 0 1 1.642 1.124c.467.398.91.811 1.328 1.239.419.429.83.918 1.232 1.469.418.535.877 1.162 1.376 1.881l6.158 9.245ZM79.91 248.978v10.691h4.781c.886 0 1.699-.13 2.44-.39a5.64 5.64 0 0 0 1.956-1.124 5.085 5.085 0 0 0 1.28-1.789c.306-.704.459-1.492.459-2.363 0-1.576-.524-2.807-1.57-3.694-1.047-.887-2.552-1.331-4.516-1.331h-4.83Zm52.183 28.471h6.304l-12.872-32.898h-6.473l-12.968 32.898h6.279l2.994-8.373h13.621l3.115 8.373Zm-9.442-25.947 4.806 13.123h-10.602l4.757-13.123c.177-.505.338-1.193.483-2.065h.097c.161.949.314 1.637.459 2.065Zm31.197 14.018v11.929h-5.724v-32.898h10.506c3.976 0 7.06.879 9.249 2.638 2.19 1.759 3.285 4.237 3.285 7.433 0 3.197-1.143 5.812-3.43 7.846-2.286 2.034-5.377 3.052-9.273 3.052h-4.613Zm0-16.473v12.022h3.719c2.463 0 4.339-.543 5.627-1.629 1.288-1.086 1.932-2.615 1.932-4.588 0-3.87-2.367-5.805-7.1-5.805h-4.178Zm50.203 28.402h5.772v-32.898h-5.772v13.834H187.75v-13.834h-5.748v32.898h5.748v-14.27h16.301v14.27Zm84.686 0h6.279v-32.898h-5.531v21.198c0 2.08.081 3.556.242 4.428h-.097c-.193-.367-.628-1.04-1.304-2.019l-15.987-23.607h-6.69v32.898h5.554v-21.565c0-2.31-.064-3.816-.193-4.52h.145c.274.658.62 1.293 1.039 1.905l16.543 24.18Zm39.263 0h-19.441v-32.898H328v4.634h-13.693v9.314h11.906v4.612h-11.906v9.727H328v4.611ZM18.67 249.55H29a2.5 2.5 0 0 0 2.5-2.5v-2.5h-29a2.5 2.5 0 0 0-2.5 2.5v2.5h12.93v27.9h5.74v-27.9Z" fill="url(#a)"/><path fill-rule="evenodd" clip-rule="evenodd" d="M260 0H88C76.954 0 68 8.954 68 20v32h54V36h84v16h34c11.046 0 20-8.954 20-20V0Zm-70 52v120c0 11.046-8.954 20-20 20h-32V72c0-11.046 8.954-20 20-20h32Z" fill="url(#b)"/><defs><linearGradient id="a" x1="164" y1="225" x2="161.488" y2="284.569" gradientUnits="userSpaceOnUse"><stop stop-color="#08E"/><stop offset="1" stop-color="#07C"/></linearGradient><linearGradient id="b" x1="190" y1="-8" x2="138" y2="192" gradientUnits="userSpaceOnUse"><stop stop-color="#3AF"/><stop offset="1" stop-color="#07C"/></linearGradient></defs></svg>